<?xml version="1.0" encoding="UTF-8"?>
<svg xmlns="http://www.w3.org/2000/svg" xmlns:svg="http://www.w3.org/2000/svg" version="1.1" viewBox="0 0 1400 1050">
	<title>The titlepage for the Standard Ebooks edition of This Side of Paradise, by F. Scott Fitzgerald</title>
	<g aria-label="THIS SIDE OF PARADISE" style="font-size:93.56725311px;font-family:'League Spartan';letter-spacing:5px;text-anchor:middle;fill:#000000">
		<path d="M 88.157154,68.245613 V 52.807016 H 142.42616 V 68.245613 H 124.08698 V 130 H 106.49634 V 68.245613 Z" style="font-size:93.56725311px;font-family:'League Spartan';letter-spacing:5px;text-anchor:middle;fill:#000000"/>
		<path d="M 171.3516,99.029239 V 130 H 153.76096 V 52.807016 h 17.59064 v 30.783626 h 24.88889 V 52.807016 h 17.59064 V 130 H 196.24049 V 99.029239 Z" style="font-size:93.56725311px;font-family:'League Spartan';letter-spacing:5px;text-anchor:middle;fill:#000000"/>
		<path d="M 247.62353,52.807016 V 130 H 230.03289 V 52.807016 Z" style="font-size:93.56725311px;font-family:'League Spartan';letter-spacing:5px;text-anchor:middle;fill:#000000"/>
		<path d="m 290.52412,51.403507 q 6.269,0 12.25731,1.871345 5.9883,1.777778 8.88889,3.555556 l 2.80701,1.871345 -7.11111,14.035088 q -0.8421,-0.561403 -2.33918,-1.403509 -1.49707,-0.935672 -5.61403,-2.432748 -4.11696,-1.497076 -7.67252,-1.497076 -4.39766,0 -6.83041,1.871345 -2.33918,1.871345 -2.33918,5.052631 0,1.590644 1.12281,2.994152 1.12281,1.309942 3.83626,2.900585 2.71345,1.497076 4.77193,2.432749 2.05848,0.935672 6.36257,2.807018 7.48538,3.181286 12.72515,8.701754 5.33333,5.426901 5.33333,12.350878 0,6.64327 -2.43275,11.60234 -2.33918,4.95906 -6.54971,7.76608 -4.11696,2.80702 -9.16959,4.11696 -5.05263,1.40351 -10.94737,1.40351 -5.05263,0 -9.91813,-1.02924 -4.86549,-1.02924 -8.14035,-2.52632 -3.27485,-1.59064 -5.89473,-3.08772 -2.61989,-1.49707 -3.83626,-2.52631 l -1.21638,-1.02924 8.79533,-14.78363 q 1.1228,0.93567 3.08772,2.43275 1.96491,1.40351 6.92397,3.83626 5.05263,2.43275 8.88889,2.43275 11.1345,0 11.1345,-7.57895 0,-1.59064 -0.8421,-2.90059 -0.74854,-1.4035 -2.80702,-2.71345 -1.96491,-1.4035 -3.55555,-2.152043 -1.49708,-0.842105 -5.05264,-2.432748 -3.46198,-1.684211 -5.14619,-2.526316 -7.01755,-3.461989 -10.85381,-8.608187 -3.83625,-5.239767 -3.83625,-11.228071 0,-10.385965 7.67251,-16.935673 7.67252,-6.643275 17.49708,-6.643275 z" style="font-size:93.56725311px;font-family:'League Spartan';letter-spacing:5px;text-anchor:middle;fill:#000000"/>
		<path d="m 387.14694,51.403507 q 6.269,0 12.25731,1.871345 5.9883,1.777778 8.88889,3.555556 l 2.80701,1.871345 -7.11111,14.035088 q -0.8421,-0.561403 -2.33918,-1.403509 -1.49708,-0.935672 -5.61403,-2.432748 -4.11696,-1.497076 -7.67252,-1.497076 -4.39766,0 -6.83041,1.871345 -2.33918,1.871345 -2.33918,5.052631 0,1.590644 1.12281,2.994152 1.1228,1.309942 3.83625,2.900585 2.71345,1.497076 4.77193,2.432749 2.05848,0.935672 6.36258,2.807018 7.48538,3.181286 12.72514,8.701754 5.33334,5.426901 5.33334,12.350878 0,6.64327 -2.43275,11.60234 -2.33918,4.95906 -6.54971,7.76608 -4.11696,2.80702 -9.16959,4.11696 -5.05263,1.40351 -10.94737,1.40351 -5.05263,0 -9.91813,-1.02924 -4.86549,-1.02924 -8.14035,-2.52632 -3.27485,-1.59064 -5.89474,-3.08772 -2.61988,-1.49707 -3.83625,-2.52631 l -1.21638,-1.02924 8.79532,-14.78363 q 1.12281,0.93567 3.08772,2.43275 1.96492,1.40351 6.92398,3.83626 5.05263,2.43275 8.88889,2.43275 11.1345,0 11.1345,-7.57895 0,-1.59064 -0.8421,-2.90059 -0.74854,-1.4035 -2.80702,-2.71345 -1.96491,-1.4035 -3.55556,-2.152043 -1.49707,-0.842105 -5.05263,-2.432748 -3.46199,-1.684211 -5.1462,-2.526316 -7.01754,-3.461989 -10.8538,-8.608187 -3.83626,-5.239767 -3.83626,-11.228071 0,-10.385965 7.67252,-16.935673 7.67251,-6.643275 17.49708,-6.643275 z" style="font-size:93.56725311px;font-family:'League Spartan';letter-spacing:5px;text-anchor:middle;fill:#000000"/>
		<path d="M 444.15861,52.807016 V 130 H 426.56797 V 52.807016 Z" style="font-size:93.56725311px;font-family:'League Spartan';letter-spacing:5px;text-anchor:middle;fill:#000000"/>
		<path d="m 460.44224,52.807016 h 22.36257 q 16.09357,0 27.50877,11.040936 11.41521,10.947369 11.41521,27.508772 0,16.654976 -11.41521,27.695906 Q 498.99195,130 482.80481,130 h -22.36257 z m 17.59064,61.473684 h 2.71345 q 9.63743,0 15.7193,-6.45614 6.17544,-6.54971 6.26901,-16.374268 0,-9.824562 -6.17544,-16.37427 -6.08187,-6.549707 -15.81287,-6.549707 h -2.71345 z" style="font-size:93.56725311px;font-family:'League Spartan';letter-spacing:5px;text-anchor:middle;fill:#000000"/>
		<path d="m 578.68493,52.807016 v 15.438597 h -26.5731 v 15.345029 h 25.45029 V 99.029239 H 552.11183 V 114.5614 h 26.5731 V 130 H 534.52119 V 52.807016 Z" style="font-size:93.56725311px;font-family:'League Spartan';letter-spacing:5px;text-anchor:middle;fill:#000000"/>
		<path d="m 620.92034,91.356724 q 0,-16.748538 11.41521,-28.350877 11.4152,-11.60234 27.50877,-11.60234 16.18713,0 27.50877,11.60234 11.32164,11.508772 11.32164,28.350877 0,16.935676 -11.1345,28.538016 -11.13451,11.50877 -27.69591,11.50877 -16.93567,0 -27.97661,-11.41521 -10.94737,-11.50877 -10.94737,-28.631576 z m 18.99416,0 q 0,6.081872 1.87134,11.134506 1.87135,4.95906 6.54971,8.42105 4.67836,3.46199 11.50877,3.46199 9.82456,0 14.78363,-6.73684 5.05263,-6.73685 5.05263,-16.280706 0,-9.450292 -5.1462,-16.187134 -5.05263,-6.83041 -14.69006,-6.83041 -9.54386,0 -14.78363,6.83041 -5.14619,6.736842 -5.14619,16.187134 z" style="font-size:93.56725311px;font-family:'League Spartan';letter-spacing:5px;text-anchor:middle;fill:#000000"/>
		<path d="m 756.06799,52.807016 v 15.438597 h -27.04094 v 15.345029 h 24.98246 V 99.029239 H 729.02705 V 130 H 711.43641 V 52.807016 Z" style="font-size:93.56725311px;font-family:'League Spartan';letter-spacing:5px;text-anchor:middle;fill:#000000"/>
		<path d="M 800.01826,52.807016 H 828.182 q 11.78947,0 19.08772,6.081872 7.29825,6.081871 7.29825,17.68421 0,11.60234 -7.39182,18.245615 -7.39181,6.549707 -18.99415,6.549707 H 817.6089 V 130 h -17.59064 z m 17.59064,34.526317 h 4.95906 q 5.89474,0 9.63743,-2.339182 3.83626,-2.432748 3.83626,-7.859649 0,-5.520468 -3.83626,-7.859649 -3.74269,-2.432749 -9.63743,-2.432749 h -4.95906 z" style="font-size:93.56725311px;font-family:'League Spartan';letter-spacing:5px;text-anchor:middle;fill:#000000"/>
		<path d="M 900.5095,52.807016 931.66739,130 H 912.76681 L 907.0592,114.5614 H 877.67909 L 871.97148,130 H 853.0709 l 31.15789,-77.192984 z m 0.5614,46.31579 -8.60819,-22.45614 h -0.18713 l -8.60819,22.45614 z" style="font-size:93.56725311px;font-family:'League Spartan';letter-spacing:5px;text-anchor:middle;fill:#000000"/>
		<path d="m 939.58698,52.807016 h 27.60234 q 11.1345,0 18.15205,5.988304 7.01754,5.894737 7.01754,16.935673 0,8.51462 -4.30409,14.31579 -4.21053,5.707602 -11.50877,8.046784 L 1003.1191,130 H 980.75657 L 957.17763,99.497075 V 130 h -17.59065 z m 17.59065,34.245615 h 2.05848 q 2.43274,0 4.11695,-0.09357 1.68421,-0.09357 3.83626,-0.654971 2.15205,-0.561404 3.46199,-1.590644 1.30994,-1.029239 2.24561,-2.994152 0.93568,-1.964912 0.93568,-4.77193 0,-2.807017 -0.93568,-4.771929 -0.93567,-1.964913 -2.24561,-2.994153 -1.30994,-1.029239 -3.46199,-1.590643 -2.15205,-0.561403 -3.83626,-0.654971 -1.68421,-0.09357 -4.11695,-0.09357 h -2.05848 z" style="font-size:93.56725311px;font-family:'League Spartan';letter-spacing:5px;text-anchor:middle;fill:#000000"/>
		<path d="M 1050.8604,52.807016 1082.0183,130 h -18.9006 l -5.7076,-15.4386 H 1028.03 L 1022.3224,130 h -18.9006 l 31.1579,-77.192984 z m 0.5614,46.31579 -8.6082,-22.45614 h -0.1871 l -8.6082,22.45614 z" style="font-size:93.56725311px;font-family:'League Spartan';letter-spacing:5px;text-anchor:middle;fill:#000000"/>
		<path d="m 1089.9379,52.807016 h 22.3625 q 16.0936,0 27.5088,11.040936 11.4152,10.947369 11.4152,27.508772 0,16.654976 -11.4152,27.695906 Q 1128.4876,130 1112.3004,130 h -22.3625 z m 17.5906,61.473684 h 2.7135 q 9.6374,0 15.7193,-6.45614 6.1754,-6.54971 6.269,-16.374268 0,-9.824562 -6.1755,-16.37427 -6.0818,-6.549707 -15.8128,-6.549707 h -2.7135 z" style="font-size:93.56725311px;font-family:'League Spartan';letter-spacing:5px;text-anchor:middle;fill:#000000"/>
		<path d="M 1181.6074,52.807016 V 130 h -17.5906 V 52.807016 Z" style="font-size:93.56725311px;font-family:'League Spartan';letter-spacing:5px;text-anchor:middle;fill:#000000"/>
		<path d="m 1224.5081,51.403507 q 6.269,0 12.2573,1.871345 5.9883,1.777778 8.8889,3.555556 l 2.807,1.871345 -7.1111,14.035088 q -0.8421,-0.561403 -2.3392,-1.403509 -1.497,-0.935672 -5.614,-2.432748 -4.117,-1.497076 -7.6725,-1.497076 -4.3977,0 -6.8304,1.871345 -2.3392,1.871345 -2.3392,5.052631 0,1.590644 1.1228,2.994152 1.1228,1.309942 3.8363,2.900585 2.7134,1.497076 4.7719,2.432749 2.0585,0.935672 6.3626,2.807018 7.4853,3.181286 12.7251,8.701754 5.3333,5.426901 5.3333,12.350878 0,6.64327 -2.4327,11.60234 -2.3392,4.95906 -6.5497,7.76608 -4.117,2.80702 -9.1696,4.11696 -5.0526,1.40351 -10.9474,1.40351 -5.0526,0 -9.9181,-1.02924 -4.8655,-1.02924 -8.1404,-2.52632 -3.2748,-1.59064 -5.8947,-3.08772 -2.6199,-1.49707 -3.8362,-2.52631 l -1.2164,-1.02924 8.7953,-14.78363 q 1.1228,0.93567 3.0877,2.43275 1.9649,1.40351 6.924,3.83626 5.0526,2.43275 8.8889,2.43275 11.1345,0 11.1345,-7.57895 0,-1.59064 -0.8421,-2.90059 -0.7486,-1.4035 -2.807,-2.71345 -1.9649,-1.4035 -3.5556,-2.152043 -1.4971,-0.842105 -5.0526,-2.432748 -3.462,-1.684211 -5.1462,-2.526316 -7.0176,-3.461989 -10.8538,-8.608187 -3.8363,-5.239767 -3.8363,-11.228071 0,-10.385965 7.6725,-16.935673 7.6725,-6.643275 17.4971,-6.643275 z" style="font-size:93.56725311px;font-family:'League Spartan';letter-spacing:5px;text-anchor:middle;fill:#000000"/>
		<path d="m 1308.0929,52.807016 v 15.438597 h -26.5731 v 15.345029 h 25.4503 v 15.438597 h -25.4503 V 114.5614 h 26.5731 V 130 h -44.1638 V 52.807016 Z" style="font-size:93.56725311px;font-family:'League Spartan';letter-spacing:5px;text-anchor:middle;fill:#000000"/>
	</g>
	<g aria-label="F. SCOTT FITZGERALD" style="font-size:70.17543793px;font-family:'League Spartan';letter-spacing:5px;text-anchor:middle;fill:#000000">
		<path d="m 298.29003,232.10526 v 11.57895 h -20.28071 v 11.50877 h 18.73685 v 11.57895 H 278.00932 V 290 h -13.19298 v -57.89474 z" style="font-size:70.17543793px;font-family:'League Spartan';letter-spacing:5px;text-anchor:middle;fill:#000000"/>
		<path d="m 314.00055,274.98246 q 3.36842,0 5.68421,2.38596 2.38597,2.31579 2.38597,5.68421 0,3.29825 -2.38597,5.68421 -2.31579,2.31579 -5.68421,2.31579 -3.29824,0 -5.68421,-2.31579 -2.31579,-2.38596 -2.31579,-5.68421 0,-3.36842 2.31579,-5.68421 2.38597,-2.38596 5.68421,-2.38596 z" style="font-size:70.17543793px;font-family:'League Spartan';letter-spacing:5px;text-anchor:middle;fill:#000000"/>
		<path d="m 379.68586,231.05263 q 4.70176,0 9.19298,1.40351 4.49123,1.33333 6.66667,2.66667 l 2.10526,1.40351 -5.33333,10.52631 q -0.63158,-0.42105 -1.75439,-1.05263 -1.1228,-0.70175 -4.21052,-1.82456 -3.08772,-1.12281 -5.75439,-1.12281 -3.29824,0 -5.12281,1.40351 -1.75438,1.40351 -1.75438,3.78947 0,1.19299 0.8421,2.24562 0.84211,0.98245 2.8772,2.17544 2.03508,1.1228 3.57894,1.82456 1.54386,0.70175 4.77193,2.10526 5.61404,2.38597 9.54386,6.52632 4,4.07017 4,9.26316 0,4.98245 -1.82456,8.70175 -1.75438,3.7193 -4.91228,5.82456 -3.08772,2.10526 -6.87719,3.08772 -3.78948,1.05263 -8.21053,1.05263 -3.78947,0 -7.43859,-0.77193 -3.64913,-0.77193 -6.10527,-1.89474 -2.45614,-1.19298 -4.42105,-2.31578 -1.96491,-1.12281 -2.87719,-1.89474 l -0.91228,-0.77193 6.59649,-11.08772 q 0.8421,0.70175 2.31579,1.82456 1.47368,1.05263 5.19298,2.87719 3.78947,1.82457 6.66667,1.82457 8.35087,0 8.35087,-5.68422 0,-1.19298 -0.63158,-2.17543 -0.5614,-1.05264 -2.10526,-2.03509 -1.47368,-1.05263 -2.66667,-1.61404 -1.1228,-0.63158 -3.78947,-1.82456 -2.59649,-1.26316 -3.85965,-1.89473 -5.26316,-2.5965 -8.14035,-6.45614 -2.87719,-3.92983 -2.87719,-8.42106 0,-7.78947 5.75438,-12.70175 5.75439,-4.98246 13.12281,-4.98246 z" style="font-size:70.17543793px;font-family:'League Spartan';letter-spacing:5px;text-anchor:middle;fill:#000000"/>
		<path d="m 439.11568,278.07018 q 3.01755,0 5.82456,-0.91229 2.8772,-0.91228 4.21053,-1.75438 l 1.33333,-0.91228 5.61404,11.22807 q -0.2807,0.21052 -0.77193,0.5614 -0.49123,0.35088 -2.31579,1.33334 -1.75439,0.91228 -3.78947,1.61403 -2.03509,0.70175 -5.33334,1.26316 -3.29824,0.5614 -6.80701,0.5614 -8.07018,0 -15.29825,-3.92982 -7.22807,-4 -11.64912,-10.94737 -4.42105,-6.94737 -4.42105,-15.01754 0,-6.10527 2.59649,-11.7193 2.59649,-5.61404 6.87719,-9.61404 4.35088,-4 10.10526,-6.38596 5.75439,-2.38597 11.78948,-2.38597 5.61403,0 10.31579,1.33334 4.77192,1.33333 6.73684,2.66666 l 1.96491,1.33334 -5.61404,11.22807 q -0.49122,-0.42106 -1.47368,-0.98246 -0.98246,-0.63158 -3.92982,-1.61404 -2.94737,-0.98245 -5.96492,-0.98245 -4.77193,0 -8.5614,1.54386 -3.78947,1.54386 -6.03509,4.07017 -2.17544,2.52632 -3.36842,5.47369 -1.12281,2.87719 -1.12281,5.89473 0,6.5965 4.91229,11.85965 4.98245,5.19299 14.17543,5.19299 z" style="font-size:70.17543793px;font-family:'League Spartan';letter-spacing:5px;text-anchor:middle;fill:#000000"/>
		<path d="m 463.61788,261.01754 q 0,-12.5614 8.5614,-21.26315 8.5614,-8.70176 20.63158,-8.70176 12.14035,0 20.63158,8.70176 8.49122,8.63158 8.49122,21.26315 0,12.70176 -8.35087,21.40351 -8.35088,8.63158 -20.77193,8.63158 -12.70176,0 -20.98246,-8.5614 -8.21052,-8.63158 -8.21052,-21.47369 z m 14.24561,0 q 0,4.56141 1.40351,8.35088 1.40351,3.7193 4.91228,6.31579 3.50877,2.59649 8.63158,2.59649 7.36842,0 11.08772,-5.05263 3.78947,-5.05263 3.78947,-12.21053 0,-7.08772 -3.85965,-12.14035 -3.78947,-5.1228 -11.01754,-5.1228 -7.1579,0 -11.08772,5.1228 -3.85965,5.05263 -3.85965,12.14035 z" style="font-size:70.17543793px;font-family:'League Spartan';letter-spacing:5px;text-anchor:middle;fill:#000000"/>
		<path d="m 526.91282,243.68421 v -11.57895 h 40.70176 v 11.57895 H 553.86019 V 290 h -13.19298 v -46.31579 z" style="font-size:70.17543793px;font-family:'League Spartan';letter-spacing:5px;text-anchor:middle;fill:#000000"/>
		<path d="m 574.67598,243.68421 v -11.57895 h 40.70175 v 11.57895 H 601.62335 V 290 h -13.19299 v -46.31579 z" style="font-size:70.17543793px;font-family:'League Spartan';letter-spacing:5px;text-anchor:middle;fill:#000000"/>
		<path d="m 682.79112,232.10526 v 11.57895 h -20.2807 v 11.50877 h 18.73684 v 11.57895 H 662.51042 V 290 h -13.19298 v -57.89474 z" style="font-size:70.17543793px;font-family:'League Spartan';letter-spacing:5px;text-anchor:middle;fill:#000000"/>
		<path d="M 707.25823,232.10526 V 290 h -13.19299 v -57.89474 z" style="font-size:70.17543793px;font-family:'League Spartan';letter-spacing:5px;text-anchor:middle;fill:#000000"/>
		<path d="m 713.64528,243.68421 v -11.57895 h 40.70175 v 11.57895 H 740.59264 V 290 h -13.19298 v -46.31579 z" style="font-size:70.17543793px;font-family:'League Spartan';letter-spacing:5px;text-anchor:middle;fill:#000000"/>
		<path d="m 812.72972,232.10526 -28.70175,46.31579 h 26.80701 V 290 H 761.01042 L 789.642,243.68421 h -24.5614 v -11.57895 z" style="font-size:70.17543793px;font-family:'League Spartan';letter-spacing:5px;text-anchor:middle;fill:#000000"/>
		<path d="m 875.45121,257.57895 v 12.5614 q -2.24561,10.31579 -9.82456,15.64912 -7.57894,5.26316 -16.91228,5.26316 -11.7193,0 -20,-8.77193 -8.21052,-8.77193 -8.21052,-21.19298 0,-12.63158 8.07017,-21.33333 8.07018,-8.70176 20.14035,-8.70176 14.10527,0 22.31579,9.89474 l -8.63158,9.47368 q -4.63158,-7.43859 -12.91228,-7.43859 -6.10526,0 -10.45614,5.33333 -4.2807,5.26316 -4.2807,12.77193 0,7.36842 4.2807,12.63158 4.35088,5.19298 10.45614,5.19298 5.05263,0 8.77193,-3.01754 3.78948,-3.08772 3.78948,-8.14035 h -13.33334 v -10.17544 z" style="font-size:70.17543793px;font-family:'League Spartan';letter-spacing:5px;text-anchor:middle;fill:#000000"/>
		<path d="m 919.33716,232.10526 v 11.57895 h -19.92983 v 11.50877 h 19.08772 v 11.57895 h -19.08772 v 11.64912 h 19.92983 V 290 h -33.12281 v -57.89474 z" style="font-size:70.17543793px;font-family:'League Spartan';letter-spacing:5px;text-anchor:middle;fill:#000000"/>
		<path d="m 931.92157,232.10526 h 20.70175 q 8.35088,0 13.61404,4.49123 5.26315,4.42105 5.26315,12.70176 0,6.38596 -3.22807,10.73684 -3.15789,4.2807 -8.63158,6.03509 L 979.57069,290 H 962.79876 L 945.11455,267.12281 V 290 h -13.19298 z m 13.19298,25.68421 h 1.54386 q 1.82456,0 3.08772,-0.0702 1.26316,-0.0702 2.87719,-0.49123 1.61404,-0.42105 2.59649,-1.19298 0.98246,-0.77193 1.68421,-2.24562 0.70176,-1.47368 0.70176,-3.57894 0,-2.10527 -0.70176,-3.57895 -0.70175,-1.47368 -1.68421,-2.24561 -0.98245,-0.77193 -2.59649,-1.19299 -1.61403,-0.42105 -2.87719,-0.49123 -1.26316,-0.0702 -3.08772,-0.0702 h -1.54386 z" style="font-size:70.17543793px;font-family:'League Spartan';letter-spacing:5px;text-anchor:middle;fill:#000000"/>
		<path d="M 1016.6266,232.10526 1039.9951,290 h -14.1755 l -4.2807,-11.57895 H 999.50384 L 995.22314,290 H 981.0477 l 23.3684,-57.89474 z m 0.4211,34.73685 L 1010.5916,250 h -0.1404 l -6.4561,16.84211 z" style="font-size:70.17543793px;font-family:'League Spartan';letter-spacing:5px;text-anchor:middle;fill:#000000"/>
		<path d="m 1060.3777,232.10526 v 46.31579 h 19.9299 V 290 h -33.1229 v -57.89474 z" style="font-size:70.17543793px;font-family:'League Spartan';letter-spacing:5px;text-anchor:middle;fill:#000000"/>
		<path d="m 1091.7955,232.10526 h 16.7719 q 12.0702,0 20.6316,8.28071 8.5614,8.21052 8.5614,20.63157 0,12.49123 -8.5614,20.77193 Q 1120.7077,290 1108.5674,290 h -16.7719 z m 13.1929,46.10527 h 2.0351 q 7.2281,0 11.7895,-4.84211 4.6316,-4.91228 4.7018,-12.2807 0,-7.36842 -4.6316,-12.2807 -4.5614,-4.91228 -11.8597,-4.91228 h -2.0351 z" style="font-size:70.17543793px;font-family:'League Spartan';letter-spacing:5px;text-anchor:middle;fill:#000000"/>
	</g>
</svg>
